<?xml version="1.0" encoding="UTF-8"?><svg id="uuid-10a404d9-131c-47e5-8dcb-f9195f9fb6e7" xmlns="http://www.w3.org/2000/svg" viewBox="0 0 1734.51327 205.34268"><g id="uuid-8b889c84-c97e-4ba0-9c5e-addd701f46a8"><g><path d="M189.98186,41.54522H112.61152V200.06632h-35.1066V41.54522H0V6.43861H189.98186V41.54522Z" style="fill:#d1202a;"/><path d="M405.48468,182.37801c0,2.52146-.45153,4.86055-1.35015,7.02079-.90128,2.16113-2.16024,4.03009-3.78043,5.60424-1.62107,1.57591-3.51128,2.81451-5.67152,3.71314-2.16024,.9004-4.45594,1.35015-6.88622,1.35015h-79.12598c-7.47232,0-15.03405-.81009-22.68432-2.43027-7.65204-1.62018-15.0553-4.11863-22.21155-7.49445-7.15625-3.37582-13.88664-7.67329-20.18676-12.89506-6.30189-5.21911-11.81494-11.40945-16.54091-18.56569s-8.43911-15.34658-11.13942-24.57542c-2.7003-9.2253-4.05046-19.51124-4.05046-30.8534V6.43861h35.1066V103.25203c0,9.90347,1.3714,18.2753,4.11863,25.11548,2.74457,6.84195,6.23195,12.55685,10.4639,17.14826,4.23018,4.59052,8.86585,8.1921,13.90789,10.8021,5.04027,2.61177,9.83353,4.54625,14.38067,5.8061,4.54448,1.26162,8.55067,2.04869,12.01679,2.36299,3.46436,.31607,5.73881,.47277,6.81893,.47277h61.70769V6.43861h35.1066V182.37801Z" style="fill:#d1202a;"/><path d="M639.75506,71.52124c0,8.01238-.99159,15.16951-2.97033,21.46874-1.9814,6.30189-4.65869,11.86186-8.03362,16.67637-3.37582,4.81628-7.27046,8.93491-11.68036,12.355-4.41168,3.42186-9.02521,6.23372-13.83972,8.43911-4.81716,2.20628-9.67771,3.80344-14.58341,4.79326-4.90747,.99159-9.51923,1.48472-13.83972,1.48472l73.319,63.32788h-54.28053l-73.18443-63.32788h-25.25005v-35.1066h79.39601c4.40902-.35856,8.43911-1.28287,12.08497-2.76759,3.64497-1.48561,6.79503-3.48826,9.45106-6.00884,2.65427-2.51969,4.70296-5.55731,6.1443-9.11463,1.43869-3.55466,2.16024-7.62902,2.16024-12.21954v-22.14426c0-1.97963-.24878-3.48738-.7428-4.52412-.49579-1.0332-1.12616-1.79902-1.89021-2.29482-.76582-.49402-1.57591-.78707-2.43027-.87826-.85701-.08853-1.64409-.13457-2.36299-.13457h-115.85277V200.06632h-35.10749V24.12693c0-2.43116,.44976-4.72597,1.35104-6.88622,.89863-2.16113,2.13722-4.05134,3.71314-5.67152,1.57326-1.62018,3.44311-2.88003,5.60335-3.78043,2.16024-.89863,4.50021-1.35015,7.02167-1.35015h133.27105c7.83177,0,14.44795,1.41744,19.84856,4.2532,5.40149,2.83488,9.78926,6.39219,13.16509,10.66664,3.37582,4.2771,5.8061,8.89064,7.29171,13.84061,1.48561,4.95174,2.22753,9.58652,2.22753,13.90789v22.41429Z" style="fill:#d1202a;"/><path d="M710.37464,200.06632h-35.10749V6.43861h35.10749V200.06632Zm167.56756,0h-49.82459l-78.99052-79.12598h-24.70999v-35.37663h24.70999L828.11761,6.43861h49.82459l-99.5146,96.81341,99.5146,96.8143Z" style="fill:#d1202a;"/><path d="M1093.44414,185.07831c0,2.52146-.47189,4.86143-1.41744,7.02167s-2.20717,4.02921-3.78043,5.60335c-1.57591,1.57591-3.44311,2.81274-5.60424,3.71314-2.16024,.89863-4.45594,1.35015-6.88622,1.35015-2.16024,0-4.3435-.4046-6.5489-1.21469-2.20628-.81009-4.16467-2.1142-5.87338-3.91588L935.05849,63.68948V200.06632h-35.10749V21.42574c0-3.59893,1.01284-6.86231,3.03851-9.78926,2.02567-2.9243,4.61176-5.10756,7.76359-6.5489,3.32978-1.35015,6.75164-1.68747,10.26204-1.01195,3.51128,.67463,6.52588,2.31872,9.04735,4.92783l128.27505,133.812V6.43861h35.1066V185.07831Z" style="fill:#d1202a;"/><path d="M1734.51327,200.06632h-126.65487c-4.86055,0-10.1735-.85436-15.93268-2.56573-5.76183-1.70872-11.09603-4.52323-16.00085-8.43911-4.90747-3.91588-9.00308-9.00042-12.28771-15.25804-3.28729-6.25497-4.92872-13.92825-4.92872-23.02164V24.12693c0-2.43116,.44976-4.72597,1.35015-6.88622,.89951-2.16113,2.13722-4.05134,3.71402-5.67152,1.57326-1.62018,3.44311-2.88003,5.60335-3.78043,2.16024-.89863,4.50021-1.35015,7.02167-1.35015h158.11562V41.54522h-140.69733v109.23658c0,4.59052,1.21469,8.1018,3.64585,10.53207,2.43027,2.43027,5.98494,3.64585,10.66664,3.64585h126.38484v35.1066Zm-15.7981-79.12598h-110.85676v-35.37663h110.85676v35.37663Z" style="fill:#d1202a;"/><path d="M1246.90441,184.79229c-45.37086,0-82.14138-36.77064-82.14138-82.14732,0-45.37074,36.77052-82.14138,82.14138-82.14138,24.19772,0,45.94486,10.46293,60.97653,27.10744-18.21626-28.61336-50.19182-47.61104-86.6257-47.61104-56.73712,0-102.69176,45.95464-102.69176,102.64498,0,56.69678,45.95464,102.6977,102.69176,102.6977,36.45542,0,68.44731-19.03952,86.65813-47.69619-15.0329,16.66679-36.79341,27.14581-61.00895,27.14581Z" style="fill:#d1202a;"/><polygon points="1383.51037 102.9567 1412.17243 63.49432 1365.73643 78.55667 1337.06632 39.08405 1337.06632 87.86216 1290.67422 102.95523 1337.06632 118.04831 1337.06632 166.8191 1365.72765 127.35233 1412.17243 142.42492 1383.51037 102.9567" style="fill:#d1202a; fill-rule:evenodd;"/><path d="M1518.9431,54.98035c-4.09717-9.94598-9.74512-18.49841-16.94531-25.65558-7.20312-7.15625-15.75391-12.75958-25.65576-16.81006-9.90332-4.05133-20.65869-6.07611-32.271-6.07611h-94.78857c-2.52148,0-4.86133,.45154-7.02148,1.35016-2.16016,.90039-4.03027,2.16022-5.60352,3.7804-1.57568,1.62018-2.81445,3.51044-3.71289,5.67157-.23486,.56287-.43555,1.13593-.60938,1.7171l11.20361,15.4248,23.16211,31.88904v-24.72644h77.37012c6.83936,0,13.07422,1.10309,18.70117,3.30762,5.625,2.20715,10.46387,5.31299,14.51562,9.31738,4.05029,4.00616,7.17725,8.84375,9.38379,14.51526,2.20508,5.67151,3.30859,11.92914,3.30859,18.76843v31.59619c0,6.93317-1.10352,13.21204-3.30859,18.83661-2.20654,5.6264-5.3335,10.44354-9.38379,14.44794-4.05176,4.00623-8.89062,7.112-14.51562,9.31653-5.62695,2.20715-11.86182,3.30853-18.70117,3.30853h-77.37012v-25.33319l-23.16162,31.89349-11.33691,15.61066c.20215,.77411,.43652,1.53528,.74219,2.26813,.89844,2.16113,2.13721,4.03009,3.71289,5.60419,1.57324,1.57593,3.44336,2.81451,5.60352,3.7132,2.16016,.90039,4.5,1.3501,7.02148,1.3501h94.78857c11.6123,0,22.36768-2.02563,32.271-6.07611,9.90186-4.05048,18.45264-9.65466,25.65576-16.81091,7.2002-7.15625,12.84814-15.6839,16.94531-25.5874,4.09473-9.90167,6.14355-20.74805,6.14355-32.54175v-31.59619c0-11.70074-2.04883-22.52588-6.14355-32.47357Z" style="fill:#d1202a;"/></g></g></svg>